{
	"asset":{
		"generator":"Khronos glTF Blender I/O v4.0.43",
		"version":"2.0"
	},
	"scene":0,
	"scenes":[
		{
			"name":"Scene",
			"nodes":[
				0,
				1,
				2
			]
		}
	],
	"nodes":[
		{
			"name":"Node_0",
			"rotation":[
				-0.70710688829422,
				0,
				0,
				0.7071066498756409
			]
		},
		{
			"mesh":0,
			"name":"player_1",
			"scale":[
				0.17688706517219543,
				0.17688706517219543,
				0.17688706517219543
			],
			"translation":[
				-1.1189582347869873,
				-0.1970893144607544,
				0
			]
		},
		{
			"mesh":1,
			"name":"player_2",
			"scale":[
				0.17688706517219543,
				0.17688706517219543,
				0.17688706517219543
			],
			"translation":[
				3.9535837173461914,
				-0.1970893144607544,
				0
			]
		}
	],
	"materials":[
		{
			"name":"Texture",
			"pbrMetallicRoughness":{
				"baseColorTexture":{
					"index":0
				},
				"metallicFactor":0
			}
		},
		{
			"name":"Texture.001",
			"pbrMetallicRoughness":{
				"baseColorTexture":{
					"index":1
				},
				"metallicFactor":0
			}
		}
	],
	"meshes":[
		{
			"name":"Plane",
			"primitives":[
				{
					"attributes":{
						"POSITION":0,
						"NORMAL":1,
						"TEXCOORD_0":2
					},
					"indices":3,
					"material":0
				}
			]
		},
		{
			"name":"Plane.001",
			"primitives":[
				{
					"attributes":{
						"POSITION":4,
						"NORMAL":5,
						"TEXCOORD_0":6
					},
					"indices":3,
					"material":1
				}
			]
		}
	],
	"textures":[
		{
			"sampler":0,
			"source":0
		},
		{
			"sampler":0,
			"source":1
		}
	],
	"images":[
		{
			"mimeType":"image/png",
			"name":"Player1",
			"uri":"Player1.png"
		},
		{
			"mimeType":"image/png",
			"name":"Player2",
			"uri":"Player2.png"
		}
	],
	"accessors":[
		{
			"bufferView":0,
			"componentType":5126,
			"count":52,
			"max":[
				9.152496337890625,
				3.9408724308013916,
				2.826662540435791
			],
			"min":[
				-1,
				-1.7124526500701904,
				-2.826662540435791
			],
			"type":"VEC3"
		},
		{
			"bufferView":1,
			"componentType":5126,
			"count":52,
			"type":"VEC3"
		},
		{
			"bufferView":2,
			"componentType":5126,
			"count":52,
			"type":"VEC2"
		},
		{
			"bufferView":3,
			"componentType":5123,
			"count":72,
			"type":"SCALAR"
		},
		{
			"bufferView":4,
			"componentType":5126,
			"count":52,
			"max":[
				1,
				3.9408724308013916,
				2.826662540435791
			],
			"min":[
				-8.217580795288086,
				-1.7124526500701904,
				-2.826662540435791
			],
			"type":"VEC3"
		},
		{
			"bufferView":5,
			"componentType":5126,
			"count":52,
			"type":"VEC3"
		},
		{
			"bufferView":6,
			"componentType":5126,
			"count":52,
			"type":"VEC2"
		}
	],
	"bufferViews":[
		{
			"buffer":0,
			"byteLength":624,
			"byteOffset":0,
			"target":34962
		},
		{
			"buffer":0,
			"byteLength":624,
			"byteOffset":624,
			"target":34962
		},
		{
			"buffer":0,
			"byteLength":416,
			"byteOffset":1248,
			"target":34962
		},
		{
			"buffer":0,
			"byteLength":144,
			"byteOffset":1664,
			"target":34963
		},
		{
			"buffer":0,
			"byteLength":624,
			"byteOffset":1808,
			"target":34962
		},
		{
			"buffer":0,
			"byteLength":624,
			"byteOffset":2432,
			"target":34962
		},
		{
			"buffer":0,
			"byteLength":416,
			"byteOffset":3056,
			"target":34962
		}
	],
	"samplers":[
		{
			"magFilter":9729,
			"minFilter":9987,
			"wrapS":33648,
			"wrapT":10497
		}
	],
	"buffers":[
		{
			"byteLength":3472,
			"uri":"HW.bin"
		}
	]
}
